# xmcd
#
# Track frame offsets: 
#        150
#        12690
#        26951
#        41149
#        63049
#        79927
#        93246
#        106962
#        112932
#        131142
#        144018
#        163965
#        177922
#        189657
#
# Disc length: 2720 seconds
#
# Revision: 0
# Processed by: cddbd v1.5.2PL0 Copyright (c) Steve Scherf et al.
# Submitted via: ExactAudioCopy v0.95b3
#
DISCID=be0a9e0e
DTITLE=Gordons - Our Time
DYEAR=2008
DGENRE=Bluegrass
TTITLE0=I Can't Settle Down
TTITLE1=300 Miles From Hazard
TTITLE2=Rock-A-Bye Cindy
TTITLE3=Blackjack Davey
TTITLE4=All My Tears
TTITLE5=Widow Mae
TTITLE6=When I Get Over You
TTITLE7=Give Me Water, Lord
TTITLE8=Lincoln's Funeral Train
TTITLE9=Thank You FOr Reminding Me
TTITLE10=Shady Grove
TTITLE11=Randall Collins
TTITLE12=A Child's Song
TTITLE13=After All This Time
EXTD=
EXTT0=
EXTT1=
EXTT2=
EXTT3=
EXTT4=
EXTT5=
EXTT6=
EXTT7=
EXTT8=
EXTT9=
EXTT10=
EXTT11=
EXTT12=
EXTT13=
PLAYORDER=
